<?xml version="1.0" encoding="utf-8"?>
<!-- Generator: Adobe Illustrator 17.0.0, SVG Export Plug-In . SVG Version: 6.00 Build 0)  -->
<!DOCTYPE svg PUBLIC "-//W3C//DTD SVG 1.1//EN" "http://www.w3.org/Graphics/SVG/1.1/DTD/svg11.dtd">
<svg version="1.1" id="Flamebug_Logo" xmlns="http://www.w3.org/2000/svg" xmlns:xlink="http://www.w3.org/1999/xlink" x="0px"
	 y="0px" width="64px" height="48px" viewBox="0 0 64 48" enable-background="new 0 0 64 48" xml:space="preserve">
<g>
	<path display="none" fill="#FFFFFF" fill-opacity="0.5" d="M25.002,38.201c-1.576,1.91-3.369,3.104-5.776,3.847
		c-1.083,0.334-2.189,0.615-3.258,0.887c-0.435,0.11-0.874,0.223-1.314,0.338c-2.225,3.172-4.318,6.675-7.18,7.842
		c2.795,0.446,5.597,0.575,8.421,0.363c5.071-0.879,8.8-2.884,10.017-8.072C26.233,42.04,26.198,39.402,25.002,38.201z"/>
	<path fill="#FFFFFF" fill-opacity="0.5" d="M22.393,37.182c-0.069,0.067-0.138,0.134-0.206,0.199
		c-1.781,1.696-3.661,2.628-6.096,3.02c-1.054,0.17-2.122,0.287-3.156,0.401c-1.438,0.158-2.922,0.322-4.364,0.629
		c-1.166,1.031-2.372,1.836-3.663,2.163c2.549,0.782,5.145,1.271,7.806,1.442c4.845-0.155,8.586-1.536,10.401-6.216
		c0.249-0.643,0.453-1.621,0.457-2.591C23.151,36.447,22.768,36.818,22.393,37.182z"/>
	<path fill="#FFFFFF" fill-opacity="0.5" d="M16.09,40.401c-1.054,0.17-2.122,0.287-3.156,0.401
		c-1.497,0.164-3.045,0.334-4.541,0.666C8.23,41.503,8.065,41.538,7.9,41.572c-0.985,0.207-1.917,0.403-2.65,0.942
		c-0.469,0.344-0.969,0.452-1.394,0.306c-0.046-0.016-0.092-0.035-0.136-0.057c-0.091-0.045-0.204-0.117-0.312-0.229
		C2.321,43.458,1.197,44.171,0,44.474c2.548,0.782,5.145,1.271,7.806,1.443c4.774-0.153,8.475-1.499,10.319-6.017
		C17.488,40.118,16.814,40.284,16.09,40.401z"/>
	<path id="Flame_Template_1_" display="none" fill="#FFFFFF" fill-opacity="0.5" d="M55.415,57.937
		c-2.736,0.647-5.505,0.955-8.316,0.952c5.615-3.4,6.125-16.737,14.216-15.778c2.122,0.252,2.794,3.673,2.67,5.353
		C63.598,53.742,60.252,56.287,55.415,57.937"/>
	<path id="Tail_Mask_1_" display="none" fill="#FFFFFF" d="M5.945,42.407c-0.135,0-0.269-0.021-0.399-0.064
		c-0.293-0.097-0.806-0.395-0.948-1.292c-0.369-2.323,0.462-4.678,2.47-6.999c1.894-2.19,4.391-3.8,5.71-4.564
		c2.167-1.255,4.465-1.869,7.231-1.933c1.38-0.031,2.579,0.452,3.74,0.92c0.737,0.297,1.434,0.578,2.144,0.715l-0.086,0.445
		l0.238-0.368c0.673,0.436,1.345,1.174,1.214,1.94c-0.051,0.297-0.271,0.829-1.178,1.048c-0.686,0.166-1.172,0.79-1.687,1.452
		c-0.063,0.08-0.125,0.16-0.187,0.238c-1.626,2.053-3.471,3.314-5.982,4.089c-1.836,0.567-3.265,0.936-4.526,1.262
		c-1.341,0.346-2.4,0.62-3.406,0.996c-0.166,0.062-0.334,0.123-0.502,0.183c-1.002,0.362-1.949,0.705-2.636,1.374
		C6.779,42.214,6.355,42.407,5.945,42.407z M20.139,28.832c-0.033,0-0.067,0-0.1,0.001c-2.543,0.059-4.646,0.618-6.62,1.761
		c-1.973,1.143-8.351,5.262-7.558,10.256c0.028,0.176,0.074,0.251,0.093,0.276c0.042-0.007,0.156-0.047,0.308-0.195
		c0.885-0.862,2.008-1.269,3.094-1.661c0.164-0.059,0.327-0.118,0.489-0.179c1.069-0.4,2.157-0.681,3.534-1.036
		c1.248-0.322,2.662-0.688,4.469-1.245c2.279-0.703,3.881-1.798,5.356-3.661c0.06-0.075,0.12-0.152,0.18-0.23
		c0.598-0.768,1.276-1.638,2.396-1.909c0.089-0.021,0.149-0.044,0.189-0.062c-0.066-0.127-0.248-0.347-0.53-0.547
		c-0.754-0.171-1.472-0.46-2.169-0.741C22.215,29.235,21.216,28.832,20.139,28.832z"/>
	<path id="Right_Wing_2_" opacity="0.5" fill="#FFFFFF" d="M5.953,11.023c2.834,5.994,10.202,12.119,16.831,13.886
		c1.16,0.309,6.678,0.895,10.51,0.754c0.26-0.97,0.723-1.883,1.392-2.744C26.693,18.2,1.583,1.781,5.953,11.023z"/>
	<path id="Left_Wing_2_" fill="#FFFFFF" fill-opacity="0.5" d="M14.84,4.443c0.72,5.849,5.222,13.164,10.31,16.622
		c0.873,0.593,5.197,2.662,8.442,3.713c0.356-0.861,0.885-1.675,1.589-2.445C29.285,15.343,13.763-4.293,14.84,4.443z"/>
	<path id="Left_Wing_-_Shard_3_" display="none" opacity="0.5" fill="#FFFFFF" d="M12.602,4.428c0.661,2.463,2.019,5.09,3.792,7.533
		c5.103,1.909,10.789,4.375,15.274,6.321c1.875,0.813,3.611,1.566,4.916,2.107c0.028-0.042,0.055-0.083,0.083-0.125
		C29.463,13.815,10.175-4.612,12.602,4.428z"/>
	<path id="Torso_Mask" display="none" fill="#FFFFFF" d="M38.538,30.514c-2.105,0-3.407-2.733-4.557-5.144
		c-2.049-4.301-1.048-8.107,3.06-11.639c1.327-1.141,3.153-1.85,4.765-1.85c1.992,0,3.433,1.045,4.01,2.847
		c0.119,0.174,0.147,0.401,0.165,0.544c0,0,0.15,1.219,0.15,1.222l-0.019,0.005c0.265,3.917-1.238,7.887-4.579,12.111
		C40.52,29.891,39.541,30.514,38.538,30.514L38.538,30.514z"/>
	<path id="Torso_2_" fill="#FFFFFF" d="M45.437,23.169c-0.078,4.455-2.636,8.022-5.702,10.949c-3.418,3.262-4.634-0.603-5.629-3.762
		c-1.389-4.414,0.447-7.396,4.132-9.761C40.928,18.867,45.511,18.941,45.437,23.169C45.396,25.517,45.479,20.773,45.437,23.169z"/>
	<g id="Legs_1_" display="none">
		<path id="Back_Leg_3_" display="inline" fill="#FFFFFF" d="M37.815,31.323c0.35,0.792-2.583,3.553-3.085,4.102
			c-1.343,1.467-1.943,2.453-2.021,4.454c-0.083,2.142,0.043,3.636-1.207,5.496c-0.466,0.693-0.83,1.698-1.456,2.258
			c-0.768,0.687-0.223-1.146-0.1-1.341c0.933-1.474,1.896-2.531,1.964-4.383c0.061-1.644-0.121-3.839,0.865-5.271
			C33.404,35.727,36.978,30.951,37.815,31.323"/>
		<path id="Back_Leg_1_" display="inline" fill="#FFFFFF" d="M39.909,31.739c0.652,0.57-0.839,4.312-1.063,5.022
			c-0.597,1.897-0.725,3.044,0.051,4.891c0.83,1.976,1.575,3.277,1.229,5.491c-0.129,0.825-0.034,1.89-0.365,2.662
			c-0.406,0.947-0.687-0.944-0.657-1.173c0.223-1.731,0.648-3.095-0.072-4.802c-0.639-1.515-1.733-3.429-1.444-5.143
			C37.773,37.596,38.993,31.756,39.909,31.739"/>
		<path id="Front_Leg_1_" display="inline" fill="#FFFFFF" d="M42.639,33.54c-0.536-0.537-1.083-1.063-1.611-1.608
			c-0.251-0.259-0.64-0.583-0.743-0.947c-0.072-0.254,0.226-0.297,0.406-0.239c0.474,0.152,0.879,0.583,1.223,0.922
			c1.867,1.839,3.466,3.926,5.351,5.75c3.14,3.038,6.721,5.552,10.172,8.209c0.284,0.219,0.592,0.453,0.801,0.747
			c0.041,0.058,0.195,0.355,0.009,0.336c-0.421-0.043-0.907-0.488-1.237-0.715c-1.85-1.274-3.604-2.685-5.396-4.038
			c-1.717-1.296-3.389-2.627-4.927-4.135C45.282,36.445,44.028,34.931,42.639,33.54"/>
	</g>
	<path id="Left_Pincher_1_" display="none" fill="#FFFFFF" d="M56.553,25.049c0.128-0.355-0.13-0.967-0.23-1.344
		c-0.106-0.4-0.311-0.733-0.504-1.08c-0.426-0.77-0.849-1.623-1.413-2.313c-0.07-0.085-0.163-0.14-0.227-0.236
		c0.039,0.348-0.429,0.469-0.636,0.643c-0.384,0.324,0.242,0.796,0.476,1.082c0.23,0.283,0.45,0.618,0.667,0.913
		c0.472,0.643,0.946,1.304,1.472,1.922c0.121,0.142,0.267,0.251,0.39,0.388"/>
	<path id="Right_Pincher_1_" display="none" fill="#FFFFFF" d="M54.228,18.703c0.002,0.376-0.125,0.747-0.163,1.116
		c-0.017,0.168-0.018,0.347-0.045,0.507c-0.041,0.246-0.091,0.217,0.12,0.403c0.579,0.511,0.962,1.147,1.31,1.833
		c0.227,0.448,0.357,0.965,0.627,1.392c0.18,0.286,0.663,1.185,1.057,1.144c-0.007-0.395-0.108-0.826-0.192-1.219
		c-0.089-0.411-0.279-0.726-0.42-1.084c-0.151-0.382-0.218-0.767-0.399-1.121c-0.17-0.332-0.36-0.663-0.538-0.994
		C55.232,20.024,54.558,19.382,54.228,18.703"/>
	<path id="Combined_Pincher_1_" fill="#FFFFFF" d="M53.588,27.315c-0.118-0.463-0.174-0.971-0.33-1.42
		c-0.128-0.369-0.193-0.842-0.599-1.38c-0.181-0.24-0.659,0.053-0.879,0.164c-0.366,0.185-0.656,0.329-0.374,0.766
		c0.57,0.884,0.932,2.031,1.646,2.806C53.95,29.227,53.744,27.928,53.588,27.315C53.536,27.109,53.693,27.729,53.588,27.315z"/>
	<path id="Right_Antenna_2_" fill="#FFFFFF" d="M49.87,20.309c-0.234,0.355,0.352,0.765,0.655,0.599
		c-0.007-0.555,0.303-0.958,0.748-1.246c1.148-0.742,2.397-1.388,3.573-2.093c1.512-0.906,3.217-1.67,4.95-2.048
		c0.717-0.156,1.734-0.232,2.463-0.093c0.372,0.07,0.92,0.467,1.31,0.29c-0.376-3.512-5.472-0.887-7.106-0.096
		c-1.436,0.694-2.718,1.689-4.079,2.513C51.65,18.578,49.983,19.297,49.87,20.309"/>
	<path id="Left_Antenna_2_" fill="#FFFFFF" d="M49.288,20.174c0.807-1.735,7.348-8.691,8.338-3.773
		c0.18,0.896-0.807,0.352-1.134,0.1c-1.164-0.897-2.238-0.256-3.351,0.472c-0.76,0.497-1.472,1.2-2.084,1.873
		C50.77,19.16,49.571,21.356,49.288,20.174"/>
	<path id="Head_3_" fill="#FFFFFF" d="M44.843,21.541c0.181,1.116-0.548,2.154,0.906,2.777c0.713,0.305,1.581,0.318,2.332,0.553
		c1.108,0.346,3.143,1.183,4.224,0.388c1.756-1.291-1.513-4.736-2.448-5.497C48.364,18.545,44.515,18.877,44.843,21.541"/>
	<path id="Tail_2_" fill="#FFFFFF" d="M24.207,33.76c-1.74-0.598-3.197-2.04-5.148-2.268c-2.337-0.274-4.487-0.083-6.701,0.815
		c-3.571,1.449-8.851,4.58-8.769,9.144c0.016,0.906,0.673,1.079,1.322,0.603c0.967-0.71,2.191-0.886,3.357-1.144
		c1.95-0.432,4.018-0.475,7.729-1.072c2.309-0.372,4.071-1.228,5.796-2.871c0.663-0.632,1.357-1.399,2.326-1.494
		c1.256-0.123,0.681-1.165,0.022-1.737"/>
	<path id="Hip_2_" fill="#FFFFFF" d="M23.266,34.263c-0.894,2.761,3.496,0.152,4.586-0.28c2.79-1.105,5.404-0.341,8.263,0.035
		c0.753,0.099,2.289-0.462,0.822-1.062c-0.904-0.37-2.972-0.887-4.528-1.169C28.464,31.071,25.854,31.286,23.266,34.263"/>
</g>
<g>
</g>
</svg>
