<?xml version="1.0"?>
<svg width="462.529" height="406.613" xmlns="http://www.w3.org/2000/svg">
 <g>
  <title>background</title>
  <rect fill="none" id="canvas_background" height="408.613" width="464.529" y="-1" x="-1"/>
 </g>

 <g>
  <title>Layer 1</title>
  <g fill="#543729" id="svg_1">
   <path d="m453.688995,198.606003c-23.790009,-22.858994 -142.748993,-37.128998 -180.285004,-41.283005c1.817993,-4.293991 3.365997,-8.735001 4.644012,-13.307999c5.116974,-2.240997 10.640991,-4.326004 16.35199,-6.067001c0.695984,2.053009 3.973999,9.919006 5.84201,13.652008c75.478973,2.082001 79.353973,-56.091003 82.423981,-72.028c3.002014,-15.583008 2.848999,-30.640007 28.739014,-58.165997c-38.571014,-11.24 -94.039001,17.421001 -112.618011,60.080013c-6.981995,-2.616013 -13.978973,-4.548012 -20.899994,-5.743011c-4.959991,-20.006012 -30.785995,-75.743001 -98.557999,-75.743001c-85.806992,0 -179.328995,70.788999 -179.328995,190.621007c0,100.729996 68.772003,189.007004 107.627998,189.007004c16.969002,0 31.566002,-12.707001 34.993004,-24.098022c2.873001,7.809998 11.687988,32.089996 14.582993,38.270996c4.279007,9.140015 24.068008,17.049011 32.727997,7.564026c11.13501,6.185974 31.56601,9.911987 42.702011,-6.585022c21.444992,4.536011 40.403992,-8.251984 40.817993,-23.510986c10.52301,-0.562012 15.684998,-15.337006 13.386993,-27.104004c-1.694,-8.662994 -19.789001,-39.748016 -26.846985,-50.477997c13.971985,11.36499 49.363007,14.582001 53.66098,0.006989c22.527008,17.682007 57.633026,8.401001 60.417023,-5.979004c27.371979,7.112 58.766998,-8.507996 53.612,-27.425995c43.972992,-3.041016 38.345001,-49.826996 26.006989,-61.682999z" fill="#ffffff" id="outline"/>
   <g id="leaf">
    <path id="svg_2" d="m331.252014,98.824997c9.471008,-18.791 21.372009,-39.308998 36.403992,-52.002998c-16.544983,6.668003 -32.880005,26.600998 -42.537994,47.905998c-4.923004,-3.128998 -9.92099,-5.919998 -14.960999,-8.361c13.472992,-28.757996 44.778992,-52.774998 79.279999,-54.650997c-23.109009,20.958 -14.906006,64.517994 -33.906006,87.577999c-5.437012,-5.460999 -17.921021,-16 -24.278992,-20.469002zm-14.938019,30.598999c0.01001,-0.718994 0.278992,-6.265999 0.783997,-8.797997c-1.325012,-0.311996 -9.561005,-1.922997 -13.855011,-1.822006c-0.312988,5.393005 2.266022,14.568001 4.815002,20.090996c17.555023,-0.367996 30.235016,-5.625 37.698029,-10.457993c-6.354004,-2.961998 -17.196014,-5.594994 -25.440002,-7.169998c-0.920013,1.903 -3.184021,6.751999 -4.002014,8.156998z" fill="#2f383d"/>
   </g>
   <path d="m251.082993,278.089996c0.003998,0.024994 0.014999,0.05899 0.018005,0.084015c-2.225006,-4.788025 -4.587997,-10.604004 -7.410004,-18.206024c10.987991,15.994019 45.42601,7.744995 43.62001,-6.58699c16.855988,12.682999 51.552979,-2.113007 43.664978,-19.897003c16.88501,7.868011 36.157013,-7.962997 31.835022,-14.860992c28.786987,5.552002 56.373993,11.085999 65.033997,13.302002c-5.753021,9.37999 -18.855011,16.003998 -38.605011,11.401001c10.671997,14.537979 -10.048004,31.978989 -38.90799,22.373001c6.352997,14.272003 -19.343018,27.121002 -48.548004,12.244995c0.371002,14.277985 -36.230988,15.921997 -50.701004,0.145996zm57.104996,-72.166992c33.411011,2.565002 88.662994,7.546997 122.869019,12.334c-2.161011,-11.132004 -8.064026,-14.311996 -26.633026,-19.300003c-19.970978,2.130005 -70.63797,7.106995 -96.235992,6.966003z" fill="#999999" id="wingtip"/>
   <path d="m287.311005,253.380997c16.855988,12.682999 51.553009,-2.113007 43.665009,-19.897003c16.884979,7.867996 36.156982,-7.962997 31.834991,-14.860992c-34.033997,-6.562012 -69.747009,-13.14801 -77.847992,-14.299011c4.914001,0.261002 13.05899,0.819016 23.225006,1.600006c25.598999,0.141006 76.265991,-4.835999 96.235992,-6.966003c-32.335999,-8.19899 -98.356018,-20.164001 -143.950012,-23.112c-2.112976,3.087997 -5.996994,8.325012 -12.761993,13.889999c-19.947998,42.207001 -56.091003,70.261993 -96.080994,70.261993c-11.654007,0 -24.693008,-1.965973 -39.307999,-6.637985c-9.114006,9.763992 -47.973,17.16301 -79.503002,1.686996c25.009998,58.562012 83.009991,97.653992 147.210995,97.653992c54.070007,0 78.04599,-55.213989 72.799011,-69.822998c-1.27301,-3.546997 -6.318008,-15.307983 -9.141006,-22.908997c10.98999,15.993011 45.426987,7.744019 43.621994,-6.587997z" fill="#7f7f7f" id="body"/>
   <path d="m254.542999,142.257996c4.773987,-2.597 21.272003,-12.597 36.993011,-16.355003c-0.248016,-1.74099 -0.434998,-3.496994 -0.551025,-5.262993c-10.313995,2.469994 -29.758972,10.804001 -40.901993,-0.681c23.509018,7.093994 35.246994,-6.321007 52.526016,-6.321007c10.29599,0 24.988007,2.875999 36.569,7.423004c-9.315002,-8.605003 -39.861023,-34.575005 -77.681,-34.664993c-8.444016,10.237 -17.571014,32.411995 -6.95401,55.861992z" fill="#CECECE" id="beak"/>
   <path d="m112.322998,253.360001c14.615005,4.672012 27.653992,6.637985 39.307999,6.637985c39.990005,0 76.132004,-28.055984 96.080994,-70.261993c-14.753998,12.31601 -40.395996,22.854004 -80.440994,22.854004c35.669006,-8.087997 66.375,-25.862991 81.99501,-51.845001c-10.980011,-17.475998 -22.889008,-56.138008 7.268997,-86.702003c-4.639008,-14.903992 -27.219009,-54.248001 -77.206009,-54.248001c-87.236008,0 -159.533005,72.997009 -159.533005,170.825005c0,23.15799 4.674999,44.876999 13.025002,64.425995c31.529007,15.47702 70.388008,8.078003 79.501999,-1.685989l0.000008,0z" fill="#2f383d" id="head"/>
   <path d="m138.496002,104.406998c0,22.251999 18.039001,40.292999 40.291992,40.292999c22.253006,0 40.294006,-18.041 40.294006,-40.292999c0,-22.252998 -18.041,-40.292999 -40.294006,-40.292999c-22.252991,0 -40.291992,18.040001 -40.291992,40.292999z" fill="#ffffff" id="eye_rim"/>
   <path d="m154.664001,104.406998c0,13.321999 10.802002,24.123001 24.123001,24.123001c13.324005,0 24.123993,-10.801003 24.123993,-24.123001c0,-13.322998 -10.798996,-24.124001 -24.123993,-24.124001c-13.320999,0 -24.123001,10.801003 -24.123001,24.124001z" fill="#333333" id="eye"/>
   <ellipse ry="8.74" rx="14.057" cy="93.703" cx="178.787" fill="#FFFFFF" id="pupil_highlight"/>
  </g>
 </g>
</svg>