<?xml version="1.0"?>
<svg width="216" height="216" xmlns="http://www.w3.org/2000/svg">

 <g>
  <title>background</title>
  <rect fill="none" id="canvas_background" height="218" width="218" y="-1" x="-1"/>
 </g>
 <g>
  <title>Layer 1</title>
  <path stroke="#ffffff" id="svg_1" d="m108.309525,197.522171c-2.479683,0 -4.835373,-0.619934 -7.067078,-1.859772l-22.441109,-13.266281c-3.347572,-1.859756 -1.735779,-2.479675 -0.619919,-2.975601c4.463425,-1.487839 5.331299,-1.859756 10.166687,-4.587433c0.495934,-0.247955 1.115852,-0.123962 1.611794,0.124008l17.233772,10.166672c0.619911,0.371948 1.487808,0.371948 2.107735,0l67.075348,-38.683014c0.619904,-0.371933 0.991882,-1.115829 0.991882,-1.859741l0,-77.24205c0,-0.743896 -0.371979,-1.487801 -0.991882,-1.859756l-66.95137,-38.68301c-0.619919,-0.37195 -1.487808,-0.37195 -2.107727,0l-66.951366,38.68301c-0.619923,0.371956 -1.115852,1.11586 -1.115852,1.859756l0,77.366028c0,0.743896 0.371948,1.487793 1.115852,1.735764l18.349628,10.662628c9.918724,4.959366 16.11792,-0.867889 16.11792,-6.819092l0,-76.374168c0,-1.115852 0.867897,-1.983749 1.983749,-1.983749l8.554901,0c1.115852,0 1.983734,0.867897 1.983734,1.983749l0,76.374168c0,13.266281 -7.191063,20.953278 -19.83744,20.953278c-3.843502,0 -6.943096,0 -15.497993,-4.215469l-17.853699,-10.042679c-4.339441,-2.479706 -7.067091,-7.191101 -7.067091,-12.274429l0,-77.366028c0,-5.08334 2.72765,-9.670746 7.067091,-12.274406l67.075356,-38.683018c4.215454,-2.355693 9.918724,-2.355693 14.134171,0l67.075333,38.683018c4.339447,2.479675 7.067108,7.191067 7.067108,12.274406l0,77.366028c0,5.083328 -2.727661,9.670746 -7.067108,12.274429l-67.075333,38.682983c-2.23172,1.239838 -4.587418,1.859772 -7.067093,1.859772zm54.057022,-76.250168c0,-14.506126 -9.794724,-18.349632 -30.376083,-21.077286c-20.829292,-2.727646 -22.937027,-4.215439 -22.937027,-9.050819c0,-3.967499 1.735764,-9.422791 17.233772,-9.422791c13.762215,0 18.845573,2.975609 20.9533,12.274414c0.123993,0.867889 0.991867,1.487816 1.859756,1.487816l8.678879,0c0.495926,0 0.991882,-0.247978 1.363831,-0.619926c0.371933,-0.371956 0.619934,-0.991867 0.495926,-1.487801c-1.363831,-15.993935 -12.026443,-23.432983 -33.475677,-23.432983c-19.093536,0 -30.500061,8.058968 -30.500061,21.573219c0,14.630119 11.282547,18.721588 29.632179,20.581352c21.945168,2.107727 23.680946,5.331306 23.680946,9.670738c0,7.439049 -5.951233,10.662636 -20.085419,10.662636c-17.729729,0 -21.697197,-4.463425 -22.937042,-13.266296c-0.123985,-0.991875 -0.991867,-1.611786 -1.983742,-1.611786l-8.678879,0c-1.11586,0 -1.983742,0.867882 -1.983742,1.983742c0,11.282555 6.199196,24.796806 35.459412,24.796806c21.449234,-0.123993 33.59967,-8.430923 33.59967,-23.061035zm29.508209,-78.481873l0,1.363823l3.719513,0l0,9.91872l1.487808,0l0,-9.91872l3.843506,0l0,-1.363823l-9.050827,0zm10.414642,11.282543l1.487808,0l0,-6.571148c0,-0.247967 0,-0.743908 0,-1.239841c0,-0.619923 0,-0.991871 0,-1.239838l0,-0.371952l3.223587,9.422779l1.487808,0l3.223572,-9.422779c0,0.619919 0,1.115849 0,1.735771c0,0.495937 0,0.867893 0,1.11586l0,6.571148l1.487823,0l0,-11.158558l-2.107742,0l-3.223587,9.422779l-3.223572,-9.422779l-2.231735,0l0,11.158558l-0.123962,0z" fill="#ffffff"/>
 </g>
</svg>